PathFileType	4	(x/y/z)	S08_P20_T07
DataRate	CameraRate	NumFrames	NumMarkers	Units	OrigDataRate	OrigDataStartFrame	OrigNumFrames
240	240	6	51	mm	240	1	373
Frame#	Time	Sternum			R.Acromium			L.Acromium			Top.Head			R.ASIS			L.ASIS			R.PSIS			L.PSIS			R.Great.Tro			L.Great.Tro			R.Iliac.Crest			L.Iliac.Crest			V.Sacral			R.Thigh.Upper.Post			R.Thigh.Lower.Ant			R.Thigh.Lower.Post			R.Thigh.Upper.Ant			R.Knee.Lat			R.Knee.Med			R.Shank.Upper.Post			R.Shank.Lower.Ant			R.Shank.Lower.Post			R.Shank.Upper.Ant			R.Ankle.Lat			R.Ankle.Med			R.Heel.Upper			R.Heel.Med			R.Heel.Lat			R.Toe.Lat			R.Toe.Med			R.Toe.Tip			L.Thigh.Upper.Post			L.Thigh.Lower.Ant			L.Thigh.Lower.Post			L.Thigh.Upper.Ant			L.Knee.Lat			L.Knee.Med			L.Shank.Upper.Post			L.Shank.Lower.Ant			L.Shank.Lower.Post			L.Shank.Upper.Ant			L.Ankle.Lat			L.Ankle.Med			L.Heel.Upper			L.Heel.Med			L.Heel.Lat			L.Toe.Lat			L.Toe.Med			L.Toe.Tip			Cervical.Spine			Back			
		X1	Y1	Z1	X2	Y2	Z2	X3	Y3	Z3	X4	Y4	Z4	X5	Y5	Z5	X6	Y6	Z6	X7	Y7	Z7	X8	Y8	Z8	X9	Y9	Z9	X10	Y10	Z10	X11	Y11	Z11	X12	Y12	Z12	X13	Y13	Z13	X14	Y14	Z14	X15	Y15	Z15	X16	Y16	Z16	X17	Y17	Z17	X18	Y18	Z18	X19	Y19	Z19	X20	Y20	Z20	X21	Y21	Z21	X22	Y22	Z22	X23	Y23	Z23	X24	Y24	Z24	X25	Y25	Z25	X26	Y26	Z26	X27	Y27	Z27	X28	Y28	Z28	X29	Y29	Z29	X30	Y30	Z30	X31	Y31	Z31	X32	Y32	Z32	X33	Y33	Z33	X34	Y34	Z34	X35	Y35	Z35	X36	Y36	Z36	X37	Y37	Z37	X38	Y38	Z38	X39	Y39	Z39	X40	Y40	Z40	X41	Y41	Z41	X42	Y42	Z42	X43	Y43	Z43	X44	Y44	Z44	X45	Y45	Z45	X46	Y46	Z46	X47	Y47	Z47	X48	Y48	Z48	X49	Y49	Z49	X50	Y50	Z50	X51	Y51	Z51	

1	0	NaN	NaN	NaN	-1471.1	1461.4	488.73	-1503.7	1486.5	154.57	-1461.6	1780.1	336.88	NaN	NaN	NaN	NaN	NaN	NaN	NaN	NaN	NaN	NaN	NaN	NaN	-1491.2	905.82	488.92	-1482.1	905.95	116.81	-1502.7	1080.8	464.33	-1499.7	1093.3	155.29	-1622	994.05	294.88	-1554.8	716.09	469.58	-1495.5	607.73	430.24	-1574.3	629.76	447.67	-1478.3	696.2	454.09	-1573.3	519.12	424.68	-1591.2	529.62	296.83	-1692.5	362.64	427.51	NaN	NaN	NaN	-1713.6	288.68	415.57	-1624.7	356.8	415.34	-1770.4	131.6	372.9	-1742.3	139.85	297.33	-1825.5	100.41	328.65	-1816.6	69.943	302.68	-1823.5	77.071	363.48	-1651.2	40.289	411.04	-1629.8	49.198	291.03	-1564.8	53.708	338.85	-1418.6	695.73	132.48	-1301.6	647.68	151.42	-1370.4	621.38	149.52	-1349.1	720.3	127.59	-1313	541.54	166.15	-1308.3	539.48	291.7	-1323.8	355.58	162.26	-1235.4	287.4	178.32	-1309.2	283.68	176.69	-1257.2	359.5	164.61	-1241.2	117.78	184.71	-1216.5	133.36	273.3	-1284.2	75.346	234.88	-1261.1	48.973	267.14	-1269.1	51.657	204.67	-1098	83.041	169.11	-1079	100.67	280.26	-1022.4	130.3	229.84	-1557.9	1521.4	323.11	-1607.7	1239	329.73
2	0.0041667	NaN	NaN	NaN	-1466.2	1460.8	488.45	-1498.9	1486	154.22	-1456.9	1779.7	336.67	NaN	NaN	NaN	NaN	NaN	NaN	NaN	NaN	NaN	NaN	NaN	NaN	-1486.1	905.29	488.72	-1477.1	905.44	116.7	-1497.4	1080.2	464.13	-1494.7	1092.8	155.08	-1616.8	993.57	294.7	-1549.7	715.53	469.27	-1490.3	607.22	429.96	-1569.1	629.19	447.34	-1473.1	695.69	453.74	-1567.9	518.52	424.45	-1586	529.15	296.7	-1689.2	363.45	427.5	NaN	NaN	NaN	-1710.9	289.68	415.56	-1622.2	356.47	415.47	-1769.2	133.11	373.22	-1740.5	140.82	297.55	-1824.7	102.5	328.94	-1816	72.032	302.84	-1822.8	78.97	363.67	-1651.1	40.241	411.11	-1629.7	49.275	291.15	-1564.6	53.497	338.93	-1414	695.15	132.79	-1297.1	646.85	151.48	-1365.9	620.74	149.85	-1344.4	719.54	127.58	-1309.1	540.72	166.45	-1303.4	539.07	292.08	-1320	354.56	163.02	-1231.8	286.22	179.21	-1305.5	282.66	177.57	-1253.4	358.33	165.33	-1238.2	116.72	185.88	-1213.2	132.28	274.46	-1281	74.526	236.23	-1258.1	48.247	268.64	-1266.1	50.788	205.99	-1094.9	81.657	170.3	-1075.8	99.297	281.37	-1019.2	128.88	230.91	-1553	1520.8	322.83	-1602.7	1238.4	329.54
3	0.0083333	NaN	NaN	NaN	-1461	1460.2	488.15	-1493.9	1485.4	153.86	-1451.9	1779.2	336.44	NaN	NaN	NaN	NaN	NaN	NaN	NaN	NaN	NaN	NaN	NaN	NaN	-1480.8	904.75	488.5	-1471.9	904.9	116.59	-1491.9	1079.7	463.93	-1489.4	1092.3	154.86	-1611.4	993.07	294.51	-1544.3	714.94	468.93	-1484.8	606.68	429.67	-1563.6	628.57	446.99	-1467.6	695.15	453.38	-1562.3	517.9	424.24	-1580.5	528.65	296.59	-1685.6	364.29	427.5	NaN	NaN	NaN	-1708.1	290.74	415.58	-1618.5	356.66	415.28	-1767.9	134.73	373.56	-1738.6	141.89	297.79	-1823.8	104.74	329.25	-1815.3	74.286	303.01	-1822.1	81.019	363.86	-1651	40.194	411.18	-1629.5	49.359	291.28	-1564.4	53.284	339	-1409.3	694.54	133.11	-1292.5	645.97	151.56	-1361.3	620.06	150.19	-1339.6	718.75	127.58	-1304.9	539.85	166.78	-1298.3	538.63	292.46	-1316.1	353.49	163.81	-1228.1	284.97	180.13	-1301.8	281.59	178.48	-1249.5	357.11	166.09	-1235.1	115.62	187.08	-1209.9	131.13	275.66	-1277.8	73.719	237.6	-1255	47.499	270.14	-1263	49.929	207.33	-1091.8	80.177	171.55	-1072.6	97.791	282.56	-1016	127.3	232.07	-1547.9	1520.3	322.54	-1597.5	1237.8	329.33
4	0.0125	NaN	NaN	NaN	-1455.7	1459.7	487.83	-1488.7	1484.8	153.48	-1446.8	1778.7	336.21	NaN	NaN	NaN	NaN	NaN	NaN	NaN	NaN	NaN	NaN	NaN	NaN	-1475.3	904.19	488.28	-1466.5	904.36	116.48	-1486.2	1079.1	463.71	-1483.9	1091.7	154.62	-1605.8	992.57	294.32	-1538.6	714.32	468.58	-1479	606.12	429.38	-1557.9	627.91	446.63	-1461.8	694.6	453.01	-1556.4	517.26	424.04	-1574.8	528.12	296.49	-1681.7	365.16	427.52	-1647.3	283.95	403.24	-1705	291.85	415.61	-1614	356.41	414.58	-1766.6	136.45	373.92	-1736.6	143.04	298.07	-1822.7	107.13	329.57	-1814.5	76.708	303.19	-1821.4	83.224	364.06	-1650.8	40.15	411.25	-1629.4	49.454	291.41	-1564.3	53.072	339.06	-1404.3	693.91	133.45	-1287.7	645.05	151.66	-1356.4	619.35	150.56	-1334.6	717.93	127.62	-1300.7	538.93	167.12	-1293.1	538.14	292.86	-1312.1	352.4	164.61	-1224.4	283.65	181.08	-1298	280.49	179.4	-1245.5	355.84	166.88	-1232	114.48	188.28	-1206.6	129.92	276.88	-1274.7	72.939	238.98	-1252.1	46.734	271.62	-1260.1	49.094	208.65	-1088.8	78.604	172.85	-1069.4	96.147	283.81	-1012.8	125.56	233.32	-1542.7	1519.7	322.22	-1592	1237.1	329.1
5	0.016667	NaN	NaN	NaN	-1450.3	1459.1	487.49	-1483.4	1484.2	153.09	-1441.6	1778.2	335.97	NaN	NaN	NaN	NaN	NaN	NaN	NaN	NaN	NaN	NaN	NaN	NaN	-1469.6	903.64	488.04	-1460.9	903.8	116.38	-1480.4	1078.5	463.5	-1478.2	1091.2	154.37	-1600	992.07	294.12	-1532.7	713.67	468.21	-1472.9	605.55	429.09	-1551.8	627.22	446.26	-1455.9	694.04	452.65	-1550.3	516.62	423.86	-1568.7	527.56	296.41	-1677.6	366.06	427.56	-1642.8	284.73	402.88	-1701.7	293.01	415.67	NaN	NaN	NaN	-1765.1	138.28	374.3	-1734.6	144.3	298.37	-1821.6	109.7	329.89	-1813.6	79.307	303.37	-1820.5	85.595	364.27	-1650.7	40.113	411.32	-1629.2	49.559	291.54	-1564.1	52.863	339.12	-1399.3	693.27	133.8	-1282.8	644.09	151.79	-1351.5	618.61	150.93	-1329.5	717.08	127.68	-1296.3	537.97	167.47	-1287.8	537.62	293.26	-1308.1	351.28	165.42	-1220.7	282.28	182.06	-1294.2	279.36	180.31	-1241.5	354.53	167.69	-1229	113.32	189.48	-1203.4	128.65	278.11	-1271.6	72.202	240.35	-1249.2	45.96	273.06	-1257.2	48.299	209.95	-1085.8	76.941	174.19	-1066.4	94.362	285.12	-1009.6	123.66	234.66	-1537.3	1519.2	321.88	-1586.5	1236.5	328.85
6	0.020833	NaN	NaN	NaN	-1444.7	1458.5	487.13	-1477.9	1483.6	152.68	-1436.2	1777.7	335.71	NaN	NaN	NaN	NaN	NaN	NaN	NaN	NaN	NaN	NaN	NaN	NaN	-1463.7	903.08	487.79	-1455.2	903.25	116.28	-1474.3	1077.9	463.28	-1472.4	1090.7	154.11	-1594.1	991.58	293.92	-1526.5	712.99	467.82	-1466.6	604.95	428.8	-1545.4	626.49	445.89	-1449.7	693.47	452.3	-1543.9	515.96	423.72	-1562.4	526.96	296.35	-1673.3	366.99	427.62	-1638	285.52	402.54	-1698.1	294.21	415.75	NaN	NaN	NaN	-1763.5	140.22	374.71	-1732.4	145.66	298.72	-1820.3	112.42	330.22	-1812.6	82.09	303.56	-1819.6	88.139	364.47	-1650.5	40.088	411.39	-1629	49.678	291.68	-1563.9	52.66	339.16	-1394.1	692.61	134.16	-1277.8	643.1	151.93	-1346.5	617.85	151.31	-1324.3	716.2	127.77	-1291.8	536.98	167.84	-1282.5	537.05	293.66	-1304.1	350.14	166.21	-1217	280.87	183.06	-1290.4	278.21	181.22	-1237.4	353.18	168.51	-1226	112.13	190.66	-1200.3	127.33	279.35	-1268.7	71.521	241.7	-1246.6	45.188	274.44	-1254.4	47.558	211.2	-1082.9	75.195	175.58	-1063.6	92.437	286.48	-1006.6	121.59	236.08	-1531.8	1518.6	321.52	-1580.7	1235.8	328.58
